<svg viewBox="0 0 72 72" xmlns="http://www.w3.org/2000/svg"><path d="m57.0411 61.0669h-42.1752c-2.1608 0-3.9124-1.7516-3.9124-3.9124v-42.1752c0-2.1608 1.7516-3.9124 3.9124-3.9124h42.1752c2.1608 0 3.9124 1.7516 3.9124 3.9124v42.1752c0 2.1608-1.7516 3.9124-3.9124 3.9124z" fill="#fff"/><g fill="#d0cfce"><path d="m12.1023 59.9056c.6783.6763 1.6142 1.0944 2.6477 1.0944h42.5c2.0711 0 3.75-1.6789 3.75-3.75v-42.5c0-1.0365-.4206-1.9749-1.1003-2.6536z"/><path d="m25.4014 46.6146c-2.7192-2.7151-4.4014-6.4684-4.4014-10.6146 0-8.2843 6.7157-15 15-15 4.1411 0 7.8903 1.6781 10.6046 4.3914z"/><path d="m46.6046 25.3914c2.7157 2.7146 4.3954 6.4654 4.3954 10.6086 0 8.2843-6.7157 15-15 15-4.1381 0-7.8848-1.6757-10.5986-4.3854"/></g><path d="m58 61h-44c-1.6569 0-3-1.3431-3-3v-44c0-1.6569 1.3431-3 3-3h44c1.6569 0 3 1.3431 3 3v44c0 1.6569-1.3431 3-3 3z" style="fill:none;stroke:#000;stroke-linecap:round;stroke-linejoin:round;stroke-miterlimit:10;stroke-width:2"/><path d="m46.6046 25.3914c2.7157 2.7146 4.3954 6.4654 4.3954 10.6086 0 8.2843-6.7157 15-15 15-4.1381 0-7.8848-1.6757-10.5986-4.3854" style="fill:none;stroke:#000;stroke-linecap:round;stroke-linejoin:round;stroke-miterlimit:10;stroke-width:2"/><circle cx="29.75" cy="36" r="3.75"/><circle cx="42.25" cy="36" r="3.75"/><circle cx="36" cy="36" r="15" style="fill:none;stroke:#000;stroke-linecap:round;stroke-linejoin:round;stroke-miterlimit:10;stroke-width:2"/></svg>